{"title":"Enough Said 2013 HDRIP XVID AC3-TiTAN","uid":9418474,"size":1505833994,"categoryP":"video","categoryS":"movies","magnet":"?xt=urn:btih:33eb0614954e1226b528e4c09bde2825cfc335ca&amp;dn=Enough+Said+2013+HDRIP+XVID+AC3-TiTAN&amp;tr=udp%3A%2F%2Ftracker.openbittorrent.com%3A80&amp;tr=udp%3A%2F%2Fopen.demonii.com%3A1337&amp;tr=udp%3A%2F%2Ftracker.coppersurfer.tk%3A6969&amp;tr=udp%3A%2F%2Fexodus.desync.com%3A6969","seeders":4,"leechers":0,"uploader":"HeroMaster","files":-1,"time":1388506341,"description":":::::: TiTAN PRESENTS ::::::\n\n\n:::: Enough Said 2013 HDRIP XVID AC3-TiTAN ::::\n\n\nIMDB: &lt;a href=&quot; http://www.imdb.com/title/tt2390361/&quot; rel=&quot;nofollow&quot; target=&quot;_NEW&quot;&gt; http://www.imdb.com/title/tt2390361/&lt;/a&gt;\n\nSource: A FRIEND THX\n\n\nGeneral\nFormat                                   : AVI\nFormat/Info                              : Audio Video Interleave\nFile size                                : 1.40 GiB\nDuration                                 : 1h 33mn\nOverall bit rate                         : 2 150 Kbps\n\nVideo\nID                                       : 0\nFormat                                   : MPEG-4 Visual\nFormat profile                           : Advanced Simple@L5\nFormat settings, BVOP                    : 1\nFormat settings, QPel                    : No\nFormat settings, GMC                     : No warppoints\nFormat settings, Matrix                  : Default (H.263)\nMuxing mode                              : Packed bitstream\nCodec ID                                 : XVID\nCodec ID/Hint                            : XviD\nDuration                                 : 1h 33mn\nBit rate                                 : 1 760 Kbps\nWidth                                    : 720 pixels\nHeight                                   : 384 pixels\nDisplay aspect ratio                     : 1.85:1\nFrame rate                               : 23.976 fps\nColor space                              : YUV\nChroma subsampling                       : 4:2:0\nBit depth                                : 8 bits\nScan type                                : Progressive\nCompression mode                         : Lossy\nBits/(Pixel*Frame)                       : 0.265\nStream size                              : 1.15 GiB (82%)\nWriting library                          : XviD 1.2.1 (UTC 2008-12-04)\n\nAudio\nID                                       : 1\nFormat                                   : AC-3\nFormat/Info                              : Audio Coding 3\nMode extension                           : CM (complete main)\nFormat settings, Endianness              : Big\nCodec ID                                 : 2000\nDuration                                 : 1h 32mn\nBit rate mode                            : Constant\nBit rate                                 : 384 Kbps\nChannel(s)                               : 6 channels\nChannel positions                        : Front: L C R, Side: L R, LFE\nSampling rate                            : 48.0 KHz\nBit depth                                : 16 bits\nCompression mode                         : Lossy\nStream size                              : 255 MiB (18%)\nAlignment                                : Aligned on interleaves\nInterleave, duration                     : 64 ms (1.54 video frames)\nInterleave, preload duration             : 192 ms\nLanguage                                      :English\n\n\nCast:\n\nJulia Louis-Dreyfus ... Eva\nLennie Loftin ... Martin (Massage Client)\nJessica St. Clair ... Cynthia (Massage Client)\nChristopher Nicholas Smith ... Hal (Massage Client) (as Chris Smith)\nTracey Fairaway ... Ellen\nToni Collette ... Sarah\nBen Falcone ... Will\nMichaela Watkins ... Hilary\nCatherine Keener ... Marianne\n\n\nPlot:\n\nA divorced woman who decides to pursue the man she's interested in learns \nhe's her new friend's ex-husband.\n\n\nGreetz and Respect:\n\n\nALL CREDIT Goes to TiTAN for Encoding and ABG for Distribution.\n\n\nPoster:\n\n &lt;a href=&quot;\nhttp://i.imgur.com/kxQqhTx.jpg&quot; rel=&quot;nofollow&quot; target=&quot;_NEW&quot;&gt;\nhttp://i.imgur.com/kxQqhTx.jpg&lt;/a&gt;\n\n\nScreenshots:\n\n &lt;a href=&quot;\nhttp://i.imgur.com/DYESguC.jpg&quot; rel=&quot;nofollow&quot; target=&quot;_NEW&quot;&gt;\nhttp://i.imgur.com/DYESguC.jpg&lt;/a&gt;\n\n\nSEED AND ENJOY!","torrent":{"xt":"urn:btih:33eb0614954e1226b528e4c09bde2825cfc335ca","amp;dn":"Enough+Said+2013+HDRIP+XVID+AC3-TiTAN","amp;tr":["udp%3A%2F%2Ftracker.openbittorrent.com%3A80","udp%3A%2F%2Fopen.demonii.com%3A1337","udp%3A%2F%2Ftracker.coppersurfer.tk%3A6969","udp%3A%2F%2Fexodus.desync.com%3A6969"],"infoHash":"33eb0614954e1226b528e4c09bde2825cfc335ca","infoHashBuffer":{"type":"Buffer","data":[51,235,6,20,149,78,18,38,181,40,228,192,155,222,40,37,207,195,53,202]},"announce":[],"urlList":[]}}